<svg width="512" height="513" viewBox="0 0 512 513" fill="none" xmlns="http://www.w3.org/2000/svg">
<path d="M488.862 327.46L326.332 489.872L340.2 503.73L502.73 341.318L488.862 327.46Z" fill="#D4F542"/>
<path d="M498.132 212.575L211.358 499.142L225.226 513L512 226.433L498.132 212.575Z" fill="#D4F542"/>
<path d="M473.02 132.086L130.822 474.036L144.691 487.894L486.888 145.944L473.02 132.086Z" fill="#D4F542"/>
<path d="M428.105 71.3558L70.0589 429.143L83.9271 443.001L441.974 85.2139L428.105 71.3558Z" fill="#D4F542"/>
<path d="M367.303 26.4646L25.1054 368.414L38.9736 382.272L381.171 40.3227L367.303 26.4646Z" fill="#D4F542"/>
<path d="M288.136 0L0 287.928L13.8682 301.786L302.004 13.8581L288.136 0Z" fill="#D4F542"/>
<path d="M174.446 7.9579L6.62874 175.654L20.4969 189.512L188.314 21.8161L174.446 7.9579Z" fill="#D4F542"/>
</svg>
