<svg width="194" height="52" viewBox="0 0 194 52" fill="none" xmlns="http://www.w3.org/2000/svg">
<path d="M61.3461 17V6.35H64.5861C65.3261 6.35 65.9711 6.48 66.5211 6.74C67.0711 7 67.4961 7.375 67.7961 7.865C68.0961 8.345 68.2461 8.925 68.2461 9.605C68.2461 10.285 68.0961 10.87 67.7961 11.36C67.4961 11.84 67.0711 12.21 66.5211 12.47C65.9711 12.73 65.3261 12.86 64.5861 12.86H62.6361V17H61.3461ZM62.6361 11.6H64.4361C65.2761 11.6 65.8961 11.43 66.2961 11.09C66.6961 10.74 66.8961 10.245 66.8961 9.605C66.8961 8.955 66.6961 8.46 66.2961 8.12C65.8961 7.78 65.2761 7.61 64.4361 7.61H62.6361V11.6ZM73.7902 17V6.35H77.0302C78.1502 6.35 79.0352 6.635 79.6852 7.205C80.3352 7.765 80.6602 8.54 80.6602 9.53C80.6602 10.03 80.5452 10.475 80.3152 10.865C80.0852 11.245 79.7902 11.545 79.4302 11.765C79.0702 11.985 78.7002 12.11 78.3202 12.14L78.2602 11.96C78.9702 12 79.5002 12.17 79.8502 12.47C80.2102 12.77 80.4202 13.26 80.4802 13.94L80.7502 17H79.4602L79.2052 14.105C79.1752 13.775 79.0952 13.51 78.9652 13.31C78.8452 13.1 78.6502 12.95 78.3802 12.86C78.1202 12.76 77.7602 12.71 77.3002 12.71H75.0802V17H73.7902ZM75.0802 11.45H77.0302C77.7702 11.45 78.3352 11.285 78.7252 10.955C79.1152 10.615 79.3102 10.14 79.3102 9.53C79.3102 8.91 79.1152 8.435 78.7252 8.105C78.3352 7.775 77.7702 7.61 77.0302 7.61H75.0802V11.45ZM89.9844 17.24C89.1444 17.24 88.4294 17.025 87.8394 16.595C87.2594 16.165 86.8144 15.535 86.5044 14.705C86.2044 13.875 86.0544 12.87 86.0544 11.69C86.0544 10.49 86.2044 9.475 86.5044 8.645C86.8144 7.815 87.2594 7.185 87.8394 6.755C88.4294 6.325 89.1444 6.11 89.9844 6.11C90.8244 6.11 91.5344 6.325 92.1144 6.755C92.7044 7.185 93.1494 7.815 93.4494 8.645C93.7594 9.475 93.9144 10.49 93.9144 11.69C93.9144 12.87 93.7594 13.875 93.4494 14.705C93.1494 15.535 92.7044 16.165 92.1144 16.595C91.5344 17.025 90.8244 17.24 89.9844 17.24ZM89.9844 15.98C90.5344 15.98 90.9994 15.82 91.3794 15.5C91.7694 15.17 92.0644 14.685 92.2644 14.045C92.4644 13.405 92.5644 12.62 92.5644 11.69C92.5644 10.76 92.4644 9.975 92.2644 9.335C92.0644 8.685 91.7694 8.195 91.3794 7.865C90.9994 7.535 90.5344 7.37 89.9844 7.37C89.4344 7.37 88.9644 7.535 88.5744 7.865C88.1944 8.195 87.9044 8.685 87.7044 9.335C87.5044 9.975 87.4044 10.76 87.4044 11.69C87.4044 12.62 87.5044 13.405 87.7044 14.045C87.9044 14.685 88.1944 15.17 88.5744 15.5C88.9644 15.82 89.4344 15.98 89.9844 15.98ZM102.084 17V7.61H98.8285V6.35H106.629V7.61H103.374V17H102.084ZM115.473 17.24C114.633 17.24 113.918 17.025 113.328 16.595C112.748 16.165 112.303 15.535 111.993 14.705C111.693 13.875 111.543 12.87 111.543 11.69C111.543 10.49 111.693 9.475 111.993 8.645C112.303 7.815 112.748 7.185 113.328 6.755C113.918 6.325 114.633 6.11 115.473 6.11C116.313 6.11 117.023 6.325 117.603 6.755C118.193 7.185 118.638 7.815 118.938 8.645C119.248 9.475 119.403 10.49 119.403 11.69C119.403 12.87 119.248 13.875 118.938 14.705C118.638 15.535 118.193 16.165 117.603 16.595C117.023 17.025 116.313 17.24 115.473 17.24ZM115.473 15.98C116.023 15.98 116.488 15.82 116.868 15.5C117.258 15.17 117.553 14.685 117.753 14.045C117.953 13.405 118.053 12.62 118.053 11.69C118.053 10.76 117.953 9.975 117.753 9.335C117.553 8.685 117.258 8.195 116.868 7.865C116.488 7.535 116.023 7.37 115.473 7.37C114.923 7.37 114.453 7.535 114.063 7.865C113.683 8.195 113.393 8.685 113.193 9.335C112.993 9.975 112.893 10.76 112.893 11.69C112.893 12.62 112.993 13.405 113.193 14.045C113.393 14.685 113.683 15.17 114.063 15.5C114.453 15.82 114.923 15.98 115.473 15.98ZM114.903 5.3L115.893 3.38H117.303L115.953 5.3H114.903ZM127.572 17V7.61H124.317V6.35H132.117V7.61H128.862V17H127.572ZM137.661 17V15.74H140.316V7.61H137.661V6.35H144.261V7.61H141.606V15.74H144.261V17H137.661ZM150.555 17V6.35H153.795C154.535 6.35 155.18 6.48 155.73 6.74C156.28 7 156.705 7.375 157.005 7.865C157.305 8.345 157.455 8.925 157.455 9.605C157.455 10.285 157.305 10.87 157.005 11.36C156.705 11.84 156.28 12.21 155.73 12.47C155.18 12.73 154.535 12.86 153.795 12.86H151.845V17H150.555ZM151.845 11.6H153.645C154.485 11.6 155.105 11.43 155.505 11.09C155.905 10.74 156.105 10.245 156.105 9.605C156.105 8.955 155.905 8.46 155.505 8.12C155.105 7.78 154.485 7.61 153.645 7.61H151.845V11.6ZM166.449 17.24C165.609 17.24 164.894 17.025 164.304 16.595C163.724 16.165 163.279 15.535 162.969 14.705C162.669 13.875 162.519 12.87 162.519 11.69C162.519 10.49 162.669 9.475 162.969 8.645C163.279 7.815 163.724 7.185 164.304 6.755C164.894 6.325 165.609 6.11 166.449 6.11C167.289 6.11 167.999 6.325 168.579 6.755C169.169 7.185 169.614 7.815 169.914 8.645C170.224 9.475 170.379 10.49 170.379 11.69C170.379 12.87 170.224 13.875 169.914 14.705C169.614 15.535 169.169 16.165 168.579 16.595C167.999 17.025 167.289 17.24 166.449 17.24ZM166.449 15.98C166.999 15.98 167.464 15.82 167.844 15.5C168.234 15.17 168.529 14.685 168.729 14.045C168.929 13.405 169.029 12.62 169.029 11.69C169.029 10.76 168.929 9.975 168.729 9.335C168.529 8.685 168.234 8.195 167.844 7.865C167.464 7.535 166.999 7.37 166.449 7.37C165.899 7.37 165.429 7.535 165.039 7.865C164.659 8.195 164.369 8.685 164.169 9.335C163.969 9.975 163.869 10.76 163.869 11.69C163.869 12.62 163.969 13.405 164.169 14.045C164.369 14.685 164.659 15.17 165.039 15.5C165.429 15.82 165.899 15.98 166.449 15.98Z" fill="#F0E7DA"/>
<path d="M61.2461 44V26.25H72.7461V30.2H62.6961L65.7461 27.275V35.4L62.6961 33.375H72.2961V37.225H62.6961L65.7461 35.25V44H61.2461ZM81.4863 44.4C79.4863 44.4 77.9447 43.8583 76.8613 42.775C75.778 41.6917 75.2363 40.0667 75.2363 37.9V26.225H79.7363V38.4C79.7363 39.0667 79.8863 39.5917 80.1863 39.975C80.4863 40.3583 80.9197 40.55 81.4863 40.55C82.053 40.55 82.4863 40.3583 82.7863 39.975C83.0863 39.5917 83.2363 39.0667 83.2363 38.4V26.225H87.7363V37.9C87.7363 40.0667 87.1947 41.6917 86.1113 42.775C85.028 43.8583 83.4863 44.4 81.4863 44.4ZM90.4766 44V26.25H94.2266L98.2266 35.175V26.25H102.477V44H98.7266L94.7266 35.075V44H90.4766ZM111.617 44.4C110.15 44.4 108.9 44.0333 107.867 43.3C106.833 42.55 106.042 41.4833 105.492 40.1C104.942 38.7167 104.667 37.0667 104.667 35.15C104.667 33.2333 104.942 31.5833 105.492 30.2C106.042 28.8 106.833 27.725 107.867 26.975C108.9 26.225 110.15 25.85 111.617 25.85C113.45 25.85 114.933 26.4583 116.067 27.675C117.2 28.8917 117.9 30.6417 118.167 32.925L113.642 33.1C113.525 32.0167 113.292 31.1833 112.942 30.6C112.592 30 112.15 29.7 111.617 29.7C111.117 29.7 110.692 29.9167 110.342 30.35C109.992 30.7667 109.725 31.3833 109.542 32.2C109.358 33 109.267 33.9833 109.267 35.15C109.267 36.3 109.358 37.2833 109.542 38.1C109.725 38.9 109.992 39.5083 110.342 39.925C110.692 40.3417 111.117 40.55 111.617 40.55C112.1 40.55 112.525 40.2417 112.892 39.625C113.275 39.0083 113.525 38.1333 113.642 37L118.167 37.175C117.9 39.4917 117.2 41.275 116.067 42.525C114.933 43.775 113.45 44.4 111.617 44.4ZM120.707 44V40.05H124.207V30.2H120.707V26.25H132.207V30.2H128.707V40.05H132.207V44H120.707ZM141.447 44.4C139.997 44.4 138.764 44.0417 137.747 43.325C136.747 42.6083 135.981 41.5667 135.447 40.2C134.914 38.8167 134.647 37.1333 134.647 35.15C134.647 33.1667 134.914 31.4833 135.447 30.1C135.981 28.7167 136.747 27.6667 137.747 26.95C138.764 26.2167 139.997 25.85 141.447 25.85C142.897 25.85 144.131 26.2167 145.147 26.95C146.164 27.6667 146.931 28.7167 147.447 30.1C147.981 31.4833 148.247 33.1667 148.247 35.15C148.247 37.1333 147.981 38.8167 147.447 40.2C146.931 41.5667 146.164 42.6083 145.147 43.325C144.131 44.0417 142.897 44.4 141.447 44.4ZM141.447 40.55C141.947 40.55 142.356 40.375 142.672 40.025C143.006 39.675 143.247 39.1083 143.397 38.325C143.564 37.525 143.647 36.4667 143.647 35.15C143.647 33.8333 143.564 32.775 143.397 31.975C143.247 31.175 143.006 30.6 142.672 30.25C142.356 29.8833 141.947 29.7 141.447 29.7C140.964 29.7 140.556 29.8833 140.222 30.25C139.889 30.6 139.639 31.175 139.472 31.975C139.322 32.775 139.247 33.8333 139.247 35.15C139.247 36.4667 139.322 37.525 139.472 38.325C139.639 39.1083 139.889 39.675 140.222 40.025C140.556 40.375 140.964 40.55 141.447 40.55ZM150.438 44V26.25H154.188L158.188 35.175V26.25H162.438V44H158.688L154.688 35.075V44H150.438ZM164.278 44L168.778 26.25H174.078L178.578 44H174.128L171.428 32.1L168.728 44H164.278ZM167.928 41.075L168.928 37.3H173.928L174.928 41.075H167.928ZM181.168 44V26.25H185.668V42.975L182.018 40.05H192.668V44H181.168Z" fill="#F0E7DA"/>
<path d="M48.6953 32.6417L32.5057 48.8312L33.8871 50.2126L50.0767 34.0231L48.6953 32.6417Z" fill="#D4F542"/>
<path d="M49.6186 21.1898L21.0532 49.7552L22.4346 51.1366L51 22.5712L49.6186 21.1898Z" fill="#D4F542"/>
<path d="M47.1172 13.1665L13.0311 47.2526L14.4125 48.634L48.4986 14.5479L47.1172 13.1665Z" fill="#D4F542"/>
<path d="M42.6433 7.11285L6.97852 42.7776L8.35992 44.159L44.0247 8.49425L42.6433 7.11285Z" fill="#D4F542"/>
<path d="M36.5868 2.63803L2.50073 36.7241L3.88213 38.1055L37.9682 4.01943L36.5868 2.63803Z" fill="#D4F542"/>
<path d="M28.7011 0L0 28.7011L1.3814 30.0825L30.0825 1.3814L28.7011 0Z" fill="#D4F542"/>
<path d="M17.3765 0.793256L0.660284 17.5094L2.04169 18.8908L18.7579 2.17466L17.3765 0.793256Z" fill="#D4F542"/>
</svg>
