<svg width="24" height="24" viewBox="0 0 24 24" fill="none" xmlns="http://www.w3.org/2000/svg">
<g clip-path="url(#clip0_21_581)">
<path d="M0.685794 8.57936C0.685794 8.57936 0.117662 8.16232 0.79942 7.60547L2.38782 6.15911C2.38782 6.15911 2.84233 5.67217 3.32287 6.09643L17.9807 17.3974V22.8164C17.9807 22.8164 17.9736 23.6673 16.9012 23.5733L0.685794 8.57936Z" fill="white"/>
<path d="M4.46405 12.0723L0.685971 15.5701C0.685971 15.5701 0.297748 15.8642 0.685971 16.3897L2.44008 18.0144C2.44008 18.0144 2.85671 18.47 3.47218 17.9517L7.47751 14.8589L4.46405 12.0723Z" fill="white"/>
<path d="M11.097 12.1013L18.0259 6.71357L17.9809 1.32345C17.9809 1.32345 17.685 0.147076 16.6978 0.75937L7.47754 9.30497L11.097 12.1013Z" fill="white"/>
<path d="M16.9013 23.5805C17.3038 24 17.7914 23.8626 17.7914 23.8626L23.191 21.1531C23.8823 20.6734 23.7852 20.0779 23.7852 20.0779V3.89795C23.7852 3.18682 23.0703 2.94093 23.0703 2.94093L18.3903 0.643627C17.3677 -5.36234e-06 16.6978 0.759336 16.6978 0.759336C16.6978 0.759336 17.5594 0.127757 17.9808 1.32342V22.7176C17.9808 22.8646 17.95 23.0092 17.8885 23.1394C17.7654 23.3925 17.4979 23.6288 16.8564 23.5299L16.9013 23.5805Z" fill="white"/>
</g>
<defs>
<clipPath id="clip0_21_581">
<rect width="24" height="24" fill="white"/>
</clipPath>
</defs>
</svg>
