<svg width="109" height="109" viewBox="0 0 109 109" fill="none" xmlns="http://www.w3.org/2000/svg">
<path d="M104.074 69.5772L69.473 104.086L72.4254 107.03L107.027 72.5217L104.074 69.5772Z" fill="black"/>
<path d="M106.048 45.1671L44.9961 106.055L47.9485 109L109 48.1116L106.048 45.1671Z" fill="black"/>
<path d="M100.701 28.0651L27.8508 100.721L30.8033 103.666L103.654 31.0096L100.701 28.0651Z" fill="black"/>
<path d="M91.1396 15.1614L14.9149 91.1825L17.8673 94.127L94.092 18.1059L91.1396 15.1614Z" fill="black"/>
<path d="M78.1953 5.62308L5.3447 78.279L8.29711 81.2236L81.1477 8.5676L78.1953 5.62308Z" fill="black"/>
<path d="M61.3415 0L0 61.1776L2.9524 64.1221L64.2939 2.94452L61.3415 0Z" fill="black"/>
<path d="M37.1379 1.69086L1.4112 37.3221L4.3636 40.2667L40.0903 4.63538L37.1379 1.69086Z" fill="black"/>
</svg>
