<svg width="216" height="122" viewBox="0 0 216 122" fill="none" xmlns="http://www.w3.org/2000/svg">
<path d="M131.695 32.6417L115.506 48.8312L116.887 50.2126L133.077 34.0231L131.695 32.6417Z" fill="#D4F542"/>
<path d="M132.619 21.1898L104.053 49.7552L105.435 51.1366L134 22.5712L132.619 21.1898Z" fill="#D4F542"/>
<path d="M130.117 13.1665L96.0311 47.2526L97.4125 48.634L131.499 14.5479L130.117 13.1665Z" fill="#D4F542"/>
<path d="M125.643 7.11285L89.9785 42.7776L91.3599 44.159L127.025 8.49425L125.643 7.11285Z" fill="#D4F542"/>
<path d="M119.587 2.63803L85.5007 36.7241L86.8821 38.1055L120.968 4.01943L119.587 2.63803Z" fill="#D4F542"/>
<path d="M111.701 0L83 28.7011L84.3814 30.0825L113.082 1.3814L111.701 0Z" fill="#D4F542"/>
<path d="M100.376 0.793256L83.6603 17.5094L85.0417 18.8908L101.758 2.17466L100.376 0.793256Z" fill="#D4F542"/>
<path d="M35.58 65.1366H42.82L44.42 67.5366V70.7766L42.82 72.3966H37.18V79.1366H35.58V65.1366ZM37.2 66.5766V71.9166L38.82 70.9766H42.2L42.82 70.3366V67.7566L42.04 66.5766H37.2ZM52.5522 65.1366H59.2722L61.4322 68.2766V70.2766L59.4522 72.2966L61.4322 75.1566V79.1366H59.8122V75.3366L57.7922 72.3966H55.7322L54.1522 71.4166V79.1366H52.5522V65.1366ZM54.1522 66.5766V70.9366H58.7922L59.8122 69.9166V68.4966L58.4922 66.5766H54.1522ZM71.1644 65.1366H76.8444L78.4244 67.5366V77.4766L76.8444 79.1366H71.1644L69.5444 76.7366V66.7966L71.1644 65.1366ZM71.1444 76.5366L71.9244 77.6966H76.2044L76.8044 77.0366V67.7366L76.0444 66.5766H71.7644L71.1444 67.2366V76.5366ZM85.7566 65.1366H96.1966V66.5766H90.2366L91.7966 67.5366V79.1366H90.1766V67.7366L89.4166 66.5766H85.7566V65.1366ZM105.149 65.1366H110.829L112.409 67.5366V77.4766L110.829 79.1366H105.149L103.529 76.7366V66.7966L105.149 65.1366ZM105.129 76.5366L105.909 77.6966H110.189L110.789 77.0366V67.7366L110.029 66.5766H105.749L105.129 67.2366V76.5366ZM106.269 64.4366L110.129 62.5766L109.129 61.2166L105.609 63.5166L106.269 64.4366ZM119.741 65.1366H130.181V66.5766H124.221L125.781 67.5366V79.1366H124.161V67.7366L123.401 66.5766H119.741V65.1366ZM137.533 65.1366H146.373V66.5966H142.753V77.6766H146.373V79.1366H137.533V77.6766H141.153V66.5966H137.533V65.1366ZM154.525 65.1366H161.765L163.365 67.5366V70.7766L161.765 72.3966H156.125V79.1366H154.525V65.1366ZM156.145 66.5766V71.9166L157.765 70.9766H161.145L161.765 70.3366V67.7566L160.985 66.5766H156.145ZM173.118 65.1366H178.798L180.378 67.5366V77.4766L178.798 79.1366H173.118L171.498 76.7366V66.7966L173.118 65.1366ZM173.098 76.5366L173.878 77.6966H178.158L178.758 77.0366V67.7366L177.998 66.5766H173.718L173.098 67.2366V76.5366Z" fill="#F0E7DA"/>
<path d="M3.6 116.137V87.7366H22V94.0566H5.92L10.8 89.3766V102.377L5.92 99.1366H21.28V105.297H5.92L10.8 102.137V116.137H3.6ZM35.9844 116.777C32.7844 116.777 30.3177 115.91 28.5844 114.177C26.851 112.443 25.9844 109.843 25.9844 106.377V87.6966H33.1844V107.177C33.1844 108.243 33.4244 109.083 33.9044 109.697C34.3844 110.31 35.0777 110.617 35.9844 110.617C36.891 110.617 37.5844 110.31 38.0644 109.697C38.5444 109.083 38.7844 108.243 38.7844 107.177V87.6966H45.9844V106.377C45.9844 109.843 45.1177 112.443 43.3844 114.177C41.651 115.91 39.1844 116.777 35.9844 116.777ZM50.3688 116.137V87.7366H56.3688L62.7688 102.017V87.7366H69.5688V116.137H63.5688L57.1688 101.857V116.137H50.3688ZM84.1931 116.777C81.8465 116.777 79.8465 116.19 78.1931 115.017C76.5398 113.817 75.2731 112.11 74.3931 109.897C73.5131 107.683 73.0731 105.043 73.0731 101.977C73.0731 98.9099 73.5131 96.2699 74.3931 94.0566C75.2731 91.8166 76.5398 90.0966 78.1931 88.8966C79.8465 87.6966 81.8465 87.0966 84.1931 87.0966C87.1265 87.0966 89.4998 88.0699 91.3131 90.0166C93.1265 91.9633 94.2465 94.7633 94.6731 98.4166L87.4331 98.6966C87.2465 96.9633 86.8731 95.6299 86.3131 94.6966C85.7531 93.7366 85.0465 93.2566 84.1931 93.2566C83.3931 93.2566 82.7131 93.6033 82.1531 94.2966C81.5931 94.9633 81.1665 95.9499 80.8731 97.2566C80.5798 98.5366 80.4331 100.11 80.4331 101.977C80.4331 103.817 80.5798 105.39 80.8731 106.697C81.1665 107.977 81.5931 108.95 82.1531 109.617C82.7131 110.283 83.3931 110.617 84.1931 110.617C84.9665 110.617 85.6465 110.123 86.2331 109.137C86.8465 108.15 87.2465 106.75 87.4331 104.937L94.6731 105.217C94.2465 108.923 93.1265 111.777 91.3131 113.777C89.4998 115.777 87.1265 116.777 84.1931 116.777ZM98.7375 116.137V109.817H104.338V94.0566H98.7375V87.7366H117.138V94.0566H111.538V109.817H117.138V116.137H98.7375ZM131.922 116.777C129.602 116.777 127.629 116.203 126.002 115.057C124.402 113.91 123.175 112.243 122.322 110.057C121.469 107.843 121.042 105.15 121.042 101.977C121.042 98.8033 121.469 96.1099 122.322 93.8966C123.175 91.6833 124.402 90.0033 126.002 88.8566C127.629 87.6833 129.602 87.0966 131.922 87.0966C134.242 87.0966 136.215 87.6833 137.842 88.8566C139.469 90.0033 140.695 91.6833 141.522 93.8966C142.375 96.1099 142.802 98.8033 142.802 101.977C142.802 105.15 142.375 107.843 141.522 110.057C140.695 112.243 139.469 113.91 137.842 115.057C136.215 116.203 134.242 116.777 131.922 116.777ZM131.922 110.617C132.722 110.617 133.375 110.337 133.882 109.777C134.415 109.217 134.802 108.31 135.042 107.057C135.309 105.777 135.442 104.083 135.442 101.977C135.442 99.8699 135.309 98.1766 135.042 96.8966C134.802 95.6166 134.415 94.6966 133.882 94.1366C133.375 93.5499 132.722 93.2566 131.922 93.2566C131.149 93.2566 130.495 93.5499 129.962 94.1366C129.429 94.6966 129.029 95.6166 128.762 96.8966C128.522 98.1766 128.402 99.8699 128.402 101.977C128.402 104.083 128.522 105.777 128.762 107.057C129.029 108.31 129.429 109.217 129.962 109.777C130.495 110.337 131.149 110.617 131.922 110.617ZM146.306 116.137V87.7366H152.306L158.706 102.017V87.7366H165.506V116.137H159.506L153.106 101.857V116.137H146.306ZM168.451 116.137L175.651 87.7366H184.131L191.331 116.137H184.211L179.891 97.0966L175.571 116.137H168.451ZM174.291 111.457L175.891 105.417H183.891L185.491 111.457H174.291ZM195.475 116.137V87.7366H202.675V114.497L196.835 109.817H213.875V116.137H195.475Z" fill="#F0E7DA"/>
</svg>
